<svg id="visual" viewBox="0 0 960 540" width="960" height="540" xmlns="http://www.w3.org/2000/svg" xmlns:xlink="http://www.w3.org/1999/xlink" version="1.1"><rect x="0" y="0" width="960" height="540" fill="#e7a7c4"></rect><defs><linearGradient id="grad1_0" x1="43.8%" y1="0%" x2="100%" y2="100%"><stop offset="14.444444444444446%" stop-color="#0762b8" stop-opacity="1"></stop><stop offset="85.55555555555554%" stop-color="#0762b8" stop-opacity="1"></stop></linearGradient></defs><defs><linearGradient id="grad1_1" x1="43.8%" y1="0%" x2="100%" y2="100%"><stop offset="14.444444444444446%" stop-color="#0762b8" stop-opacity="1"></stop><stop offset="85.55555555555554%" stop-color="#a67cbf" stop-opacity="1"></stop></linearGradient></defs><defs><linearGradient id="grad1_2" x1="43.8%" y1="0%" x2="100%" y2="100%"><stop offset="14.444444444444446%" stop-color="#e7a7c4" stop-opacity="1"></stop><stop offset="85.55555555555554%" stop-color="#a67cbf" stop-opacity="1"></stop></linearGradient></defs><defs><linearGradient id="grad2_0" x1="0%" y1="0%" x2="56.3%" y2="100%"><stop offset="14.444444444444446%" stop-color="#0762b8" stop-opacity="1"></stop><stop offset="85.55555555555554%" stop-color="#0762b8" stop-opacity="1"></stop></linearGradient></defs><defs><linearGradient id="grad2_1" x1="0%" y1="0%" x2="56.3%" y2="100%"><stop offset="14.444444444444446%" stop-color="#a67cbf" stop-opacity="1"></stop><stop offset="85.55555555555554%" stop-color="#0762b8" stop-opacity="1"></stop></linearGradient></defs><defs><linearGradient id="grad2_2" x1="0%" y1="0%" x2="56.3%" y2="100%"><stop offset="14.444444444444446%" stop-color="#a67cbf" stop-opacity="1"></stop><stop offset="85.55555555555554%" stop-color="#e7a7c4" stop-opacity="1"></stop></linearGradient></defs><g transform="translate(960, 0)"><path d="M0 405C-38.7 388 -77.4 371 -115.3 354.7C-153.1 338.5 -190.1 322.9 -216.3 297.7C-242.5 272.5 -257.8 237.6 -288 209.3C-318.2 180.9 -363.2 158.9 -385.2 125.2C-407.1 91.4 -406.1 45.7 -405 0L0 0Z" fill="#cb8fc0"></path><path d="M0 270C-25.8 258.7 -51.6 247.3 -76.8 236.5C-102.1 225.6 -126.8 215.3 -144.2 198.5C-161.7 181.7 -171.9 158.4 -192 139.5C-212.1 120.6 -242.1 106 -256.8 83.4C-271.4 60.9 -270.7 30.5 -270 0L0 0Z" fill="#736ebd"></path><path d="M0 135C-12.9 129.3 -25.8 123.7 -38.4 118.2C-51 112.8 -63.4 107.6 -72.1 99.2C-80.8 90.8 -85.9 79.2 -96 69.8C-106.1 60.3 -121.1 53 -128.4 41.7C-135.7 30.5 -135.4 15.2 -135 0L0 0Z" fill="#0762b8"></path></g><g transform="translate(0, 540)"><path d="M0 -405C36.5 -385.2 73 -365.4 115.6 -355.7C158.2 -346 206.9 -346.4 233.4 -321.2C259.8 -295.9 264 -245 289.6 -210.4C315.3 -175.8 362.4 -157.5 385.2 -125.2C408 -92.8 406.5 -46.4 405 0L0 0Z" fill="#cb8fc0"></path><path d="M0 -270C24.3 -256.8 48.6 -243.6 77 -237.1C105.5 -230.7 137.9 -230.9 155.6 -214.1C173.2 -197.3 176 -163.4 193.1 -140.3C210.2 -117.2 241.6 -105 256.8 -83.4C272 -61.9 271 -30.9 270 0L0 0Z" fill="#736ebd"></path><path d="M0 -135C12.2 -128.4 24.3 -121.8 38.5 -118.6C52.7 -115.3 69 -115.5 77.8 -107.1C86.6 -98.6 88 -81.7 96.5 -70.1C105.1 -58.6 120.8 -52.5 128.4 -41.7C136 -30.9 135.5 -15.5 135 0L0 0Z" fill="#0762b8"></path></g></svg>